<svg width="35" height="35" viewBox="0 0 35 35" fill="none" xmlns="http://www.w3.org/2000/svg">
<path d="M17.4375 0.0625C27.0703 0.0625 34.875 7.86719 34.875 17.5C34.875 27.1328 27.0703 34.9375 17.4375 34.9375C7.80469 34.9375 0 27.1328 0 17.5C0 7.86719 7.80469 0.0625 17.4375 0.0625ZM17.4375 6.8125C13.9922 6.8125 11.25 9.625 11.25 13C11.25 16.4453 13.9922 19.1875 17.4375 19.1875C20.8125 19.1875 23.625 16.4453 23.625 13C23.625 9.625 20.8125 6.8125 17.4375 6.8125ZM17.4375 31C21.5156 31 25.2422 29.1719 27.7031 26.2188C26.3672 23.7578 23.7656 22 20.8125 22C20.6016 22 20.4609 22.0703 20.25 22.1406C19.4062 22.4219 18.4219 22.5625 17.4375 22.5625C16.3828 22.5625 15.4688 22.4219 14.5547 22.1406C14.3438 22.0703 14.2031 22 14.0625 22C11.0391 22 8.4375 23.7578 7.10156 26.2188C9.5625 29.1719 13.2891 31 17.4375 31Z" fill="#014F41"/>
</svg>
