<svg width="36" height="29" viewBox="0 0 36 29" fill="none" xmlns="http://www.w3.org/2000/svg">
<path d="M34.9453 15.6953L23.1328 27.5078C22.0781 28.5625 20.25 27.8594 20.25 26.3125V19.5625H10.6875C9.70312 19.5625 9 18.8594 9 17.875V11.125C9 10.2109 9.70312 9.4375 10.6875 9.4375H20.25V2.6875C20.25 1.21094 22.0078 0.4375 23.1328 1.49219L34.9453 13.3047C35.5781 14.0078 35.5781 15.0625 34.9453 15.6953ZM13.5 27.1562C13.5 27.6484 13.0781 28 12.6562 28H6.75C3.02344 28 0 24.9766 0 21.25V7.75C0 4.02344 3.02344 1 6.75 1H12.6562C13.0781 1 13.5 1.42188 13.5 1.84375V4.65625C13.5 5.14844 13.0781 5.5 12.6562 5.5H6.75C5.48438 5.5 4.5 6.55469 4.5 7.75V21.25C4.5 22.5156 5.48438 23.5 6.75 23.5H12.6562C13.0781 23.5 13.5 23.9219 13.5 24.3438V27.1562Z" fill="#014F41"/>
</svg>
