<svg width="28" height="25" viewBox="0 0 28 25" fill="none" xmlns="http://www.w3.org/2000/svg">
<path d="M18.8438 17.1719L20.3438 15.6719C20.5781 15.4375 21 15.625 21 15.9531V22.75C21 24.0156 19.9688 25 18.75 25H2.25C0.984375 25 0 24.0156 0 22.75V6.25C0 5.03125 0.984375 4 2.25 4H15.0469C15.375 4 15.5625 4.42188 15.3281 4.65625L13.8281 6.15625C13.7344 6.25 13.6406 6.25 13.5469 6.25H2.25V22.75H18.75V17.4531C18.75 17.3594 18.75 17.2656 18.8438 17.1719ZM26.1562 7.75L13.875 20.0312L9.60938 20.5C8.39062 20.6406 7.35938 19.6094 7.5 18.3906L7.96875 14.125L20.25 1.84375C21.3281 0.765625 23.0625 0.765625 24.1406 1.84375L26.1562 3.85938C27.2344 4.9375 27.2344 6.67188 26.1562 7.75ZM21.5625 9.15625L18.8438 6.4375L10.125 15.1562L9.75 18.25L12.8438 17.875L21.5625 9.15625ZM24.5625 5.45312L22.5469 3.4375C22.3594 3.20312 22.0312 3.20312 21.8438 3.4375L20.4375 4.84375L23.1562 7.60938L24.6094 6.15625C24.7969 5.92188 24.7969 5.64062 24.5625 5.45312Z" fill="#004438"/>
</svg>
