<svg width="22" height="25" viewBox="0 0 22 25" fill="none" xmlns="http://www.w3.org/2000/svg">
<path d="M11.0784 24.9036C9.39087 24.9036 8.07837 23.5911 8.07837 21.9036H14.0315C14.0315 23.5911 12.719 24.9036 11.0784 24.9036ZM21.1565 17.9193C21.4377 18.2005 21.5784 18.5755 21.5784 18.9036C21.5315 19.7005 20.969 20.4036 20.0315 20.4036H2.07837C1.14087 20.4036 0.578369 19.7005 0.578369 18.9036C0.531494 18.5755 0.672119 18.2005 0.953369 17.9193C1.84399 16.9349 3.57837 15.4818 3.57837 10.6536C3.57837 7.04425 6.10962 4.138 9.57837 3.388V2.40363C9.57837 1.60675 10.2346 0.903625 11.0784 0.903625C11.8752 0.903625 12.5315 1.60675 12.5315 2.40363V3.388C16.0002 4.138 18.5315 7.04425 18.5315 10.6536C18.5315 15.4818 20.2659 16.9349 21.1565 17.9193Z" fill="#C4C4C4"/>
</svg>
