<svg width="45" height="37" viewBox="0 0 45 37" fill="none" xmlns="http://www.w3.org/2000/svg">
<path d="M43.875 15.125C44.4375 15.125 45 15.6875 45 16.25V18.5C45 19.1328 44.4375 19.625 43.875 19.625H39.375V24.125C39.375 24.7578 38.8125 25.25 38.25 25.25H36C35.3672 25.25 34.875 24.7578 34.875 24.125V19.625H30.375C29.7422 19.625 29.25 19.1328 29.25 18.5V16.25C29.25 15.6875 29.7422 15.125 30.375 15.125H34.875V10.625C34.875 10.0625 35.3672 9.5 36 9.5H38.25C38.8125 9.5 39.375 10.0625 39.375 10.625V15.125H43.875ZM15.75 18.5C10.7578 18.5 6.75 14.4922 6.75 9.5C6.75 4.57812 10.7578 0.5 15.75 0.5C20.6719 0.5 24.75 4.57812 24.75 9.5C24.75 14.4922 20.6719 18.5 15.75 18.5ZM22.0078 20.75C27.2109 20.75 31.5 25.0391 31.5 30.2422V33.125C31.5 35.0234 29.9531 36.5 28.125 36.5H3.375C1.47656 36.5 0 35.0234 0 33.125V30.2422C0 25.0391 4.21875 20.75 9.42188 20.75H10.6172C12.1641 21.5234 13.9219 21.875 15.75 21.875C17.5781 21.875 19.2656 21.5234 20.8125 20.75H22.0078Z" fill="#014F41"/>
</svg>
